<svg xmlns="http://www.w3.org/2000/svg" width="238.93222045898438" height="228.15304565429688" viewBox="-25.853254318237305 -14.941010475158691 238.93222045898438 228.15304565429688"><title>Neo4j Graph Visualization</title><desc>Created using Neo4j (http://www.neo4j.com/)</desc><g class="layer relationships"><g class="relationship" transform="translate(168.0932384377768 184.21203324668588) rotate(278.6937886772543)"><path class="outline" fill="#A5ABB6" stroke="none" d="M 21.40063509461097,12.933012701892217 L 21.90063509461097,12.06698729810778 A 58.18410528506901 58.18410528506901 0 0 0 39.659427746592115,18.74774482993999 L 39.464644997333934,19.72859124023644 A 59.18410528506901 59.18410528506901 0 0 1 21.40063509461097,12.933012701892217 Z M 58.86773368569287,20.335912117409876 L 58.734673535326216,19.34480415336943 A 58.18410528506901 58.18410528506901 0 0 0 76.87651252545818,13.787744165271565 L 75.54193027168819,11.100944915621119 L 83.36814115027089,11.121518781416647 L 78.65595553048485,17.37014316480549 L 77.32137327671485,14.683343915155046 A 59.18410528506901 59.18410528506901 0 0 1 58.86773368569287,20.335912117409876"/><text text-anchor="middle" pointer-events="none" font-size="8px" fill="#000000" x="49.15676164672193" y="23.33345390163654" font-family="sans-serif">trek</text></g><g class="relationship" transform="translate(184.07896746277828 79.66902982461563) rotate(218.53757072016396)"><path class="outline" fill="#A5ABB6" stroke="none" d="M 25 0.5 L 39.486224608192366 0.5 L 39.486224608192366 -0.5 L 25 -0.5 Z M 58.822162108192366 0.5 L 73.30838671638473 0.5 L 73.30838671638473 3.5 L 80.30838671638473 0 L 73.30838671638473 -3.5 L 73.30838671638473 -0.5 L 58.822162108192366 -0.5 Z"/><text text-anchor="middle" pointer-events="none" font-size="8px" fill="#000000" x="49.154193358192366" y="3" transform="rotate(180 49.154193358192366 0)" font-family="sans-serif">trek</text></g><g class="relationship" transform="translate(101.70676997450246 14.05898948199641) rotate(518.8066777472441)"><path class="outline" fill="#A5ABB6" stroke="none" d="M 25 0.5 L 39.686827552513776 0.5 L 39.686827552513776 -0.5 L 25 -0.5 Z M 59.022765052513776 0.5 L 73.70959260502755 0.5 L 73.70959260502755 3.5 L 80.70959260502755 0 L 73.70959260502755 -3.5 L 73.70959260502755 -0.5 L 59.022765052513776 -0.5 Z"/><text text-anchor="middle" pointer-events="none" font-size="8px" fill="#000000" x="49.354796302513776" y="3" transform="rotate(180 49.354796302513776 0)" font-family="sans-serif">trek</text></g><g class="relationship" transform="translate(168.0932384377768 184.21203324668588) rotate(278.6937886772543)"><path class="outline" fill="#A5ABB6" stroke="none" d="M 25 0.5 L 38.37320807367898 0.5 L 38.37320807367898 -0.5 L 25 -0.5 Z M 60.38492682367898 0.5 L 73.75813489735796 0.5 L 73.75813489735796 3.5 L 80.75813489735796 0 L 73.75813489735796 -3.5 L 73.75813489735796 -0.5 L 60.38492682367898 -0.5 Z"/><text text-anchor="middle" pointer-events="none" font-size="8px" fill="#000000" x="49.37906744867898" y="3" font-family="sans-serif">road</text></g><g class="relationship" transform="translate(168.0932384377768 184.21203324668588) rotate(278.6937886772543)"><path class="outline" fill="#A5ABB6" stroke="none" d="M 21.40063509461097,-12.933012701892217 L 21.90063509461097,-12.06698729810778 A 58.18410528506901 58.18410528506901 0 0 1 22.6924379150404,-12.51591394574222 L 22.206046491069028,-13.389654972984907 A 59.18410528506901 59.18410528506901 0 0 0 21.40063509461097,-12.933012701892217 Z M 76.48898043896838,-15.088722559093775 L 76.05818415373241,-14.186273357960054 A 58.18410528506901 58.18410528506901 0 0 1 76.87651252545818,-13.787744165271565 L 75.54193027168819,-11.100944915621119 L 83.36814115027089,-11.121518781416647 L 78.65595553048485,-17.37014316480549 L 77.32137327671485,-14.683343915155046 A 59.18410528506901 59.18410528506901 0 0 0 76.48898043896838,-15.088722559093775"/><text text-anchor="middle" pointer-events="none" font-size="8px" fill="#000000" x="49.15676164672192" y="-17.33345390163654" font-family="sans-serif">PublicTrans…</text></g></g><g class="layer nodes"><g class="node" transform="translate(168.0932384377768,184.21203324668588)"><circle class="outline" cx="0" cy="0" r="25" fill="#F79767" stroke="#f36924" stroke-width="2px"/><text text-anchor="middle" pointer-events="none" font-family="sans-serif" dy="1.5625" font-size="25" fill="#FFFFFF"/><text text-anchor="middle" pointer-events="none" y="5" font-size="10px" fill="#FFFFFF" font-family="sans-serif"> Darjeeling</text></g><g class="node" transform="translate(184.07896746277828,79.66902982461563)"><circle class="outline" cx="0" cy="0" r="25" fill="#F79767" stroke="#f36924" stroke-width="2px"/><text text-anchor="middle" pointer-events="none" font-family="sans-serif" dy="1.5625" font-size="25" fill="#FFFFFF"/><text text-anchor="middle" pointer-events="none" y="5" font-size="10px" fill="#FFFFFF" font-family="sans-serif"> Rimbik</text></g><g class="node" transform="translate(101.70676997450246,14.05898948199641)"><circle class="outline" cx="0" cy="0" r="25" fill="#57C7E3" stroke="#23b3d7" stroke-width="2px"/><text text-anchor="middle" pointer-events="none" font-family="sans-serif" dy="1.5625" font-size="25" fill="#FFFFFF"/><text text-anchor="middle" pointer-events="none" y="5" font-size="10px" fill="#FFFFFF" font-family="sans-serif"> BhikeBh…</text></g><g class="node" transform="translate(3.1467461135054626,52.27468868063198)"><circle class="outline" cx="0" cy="0" r="25" fill="#F16667" stroke="#eb2728" stroke-width="2px"/><text text-anchor="middle" pointer-events="none" font-family="sans-serif" dy="1.5625" font-size="25" fill="#FFFFFF"/><text text-anchor="middle" pointer-events="none" y="5" font-size="10px" fill="#FFFFFF" font-family="sans-serif"> Sandak…</text></g></g></svg>