<svg xmlns="http://www.w3.org/2000/svg" width="411.3201904296875" height="359.0438232421875" viewBox="-100.58641815185547 -73.55354309082031 411.3201904296875 359.0438232421875"><title>Neo4j Graph Visualization</title><desc>Created using Neo4j (http://www.neo4j.com/)</desc><g class="layer relationships"><g class="relationship" transform="translate(170.58986378090358 256.49026977375263) rotate(321.2321369618028)"><path class="outline" fill="#A5ABB6" stroke="none" d="M 24.018736134675446,-6.953439040707552 L 24.277555179777966,-5.987513214418485 A 109.26306956207306 109.26306956207306 0 0 1 41.24020194952264,-9.122928035318012 L 41.13662883369641,-10.117549877868257 A 110.26306956207306 110.26306956207306 0 0 0 24.018736134675446,-6.953439040707552 Z M 60.53315635355566,-10.421690070843042 L 60.460818100354196,-9.424309914070435 A 109.26306956207306 109.26306956207306 0 0 1 77.51342911467398,-6.822258967500503 L 76.82820644870196,-3.9015621502943425 L 84.4425921324837,-5.710188883100153 L 78.42705933597,-10.716521390442052 L 77.74183666999798,-7.795824573235891 A 110.26306956207306 110.26306956207306 0 0 0 60.53315635355566,-10.421690070843042"/><text text-anchor="middle" pointer-events="none" font-size="8px" fill="#000000" x="50.83603017182639" y="-7.197070974326095" font-family="sans-serif">trek</text></g><g class="relationship" transform="translate(255.4058166638132 188.37478391699057) rotate(283.2526157414571)"><path class="outline" fill="#A5ABB6" stroke="none" d="M 21.40063509461097,-12.933012701892217 L 21.90063509461097,-12.06698729810778 A 67.57079337667818 67.57079337667818 0 0 1 42.883416927173684,-19.895818695238347 L 42.693947272963655,-20.877705272259107 A 68.57079337667818 68.57079337667818 0 0 0 21.40063509461097,-12.933012701892217 Z M 64.76162407082955,-21.51650982473039 L 64.62927045727247,-20.525307261689733 A 67.57079337667818 67.57079337667818 0 0 1 86.02978735588776,-13.923367323330497 L 84.68258892636285,-11.242871773719266 L 92.50881004323479,-11.226653579374243 L 87.82605192858765,-17.497361389478804 L 86.47885349906274,-14.816865839867573 A 68.57079337667818 68.57079337667818 0 0 0 64.76162407082955,-21.51650982473039"/><text text-anchor="middle" pointer-events="none" font-size="8px" fill="#000000" x="53.716376088656595" y="-18.591254700960903" font-family="sans-serif">road</text></g><g class="relationship" transform="translate(281.73373082996045 76.58700574917822) rotate(194.50774490873096)"><path class="outline" fill="#A5ABB6" stroke="none" d="M 21.40063509461097,12.933012701892217 L 21.90063509461097,12.06698729810778 A 68.93624120688375 68.93624120688375 0 0 0 44.851321387298874,20.333752564418774 L 44.68424766658078,21.319696970481004 A 69.93624120688375 69.93624120688375 0 0 1 21.40063509461097,12.933012701892217 Z M 64.08860262829675,21.87531245929459 L 63.97821855850657,20.881423452847415 A 68.93624120688375 68.93624120688375 0 0 0 87.3643278471632,13.941444950527211 L 86.01544785574809,11.261795203123649 L 93.8416572563407,11.240666595125887 L 89.16283450238335,17.51431128039863 L 87.81395451096824,14.834661532995066 A 69.93624120688375 69.93624120688375 0 0 1 64.08860262829675,21.87531245929459"/><text text-anchor="middle" pointer-events="none" font-size="8px" fill="#000000" x="54.381364441254235" y="24.774245178641408" transform="rotate(180 54.381364441254235 21.774245178641408)" font-family="sans-serif">trek</text></g><g class="relationship" transform="translate(169.26594648189044 47.48463893252264) rotate(510.2628996993651)"><path class="outline" fill="#A5ABB6" stroke="none" d="M 25 0.5 L 56.825148530831996 0.5 L 56.825148530831996 -0.5 L 25 -0.5 Z M 76.161086030832 0.5 L 107.98623456166399 0.5 L 107.98623456166399 3.5 L 114.98623456166399 0 L 107.98623456166399 -3.5 L 107.98623456166399 -0.5 L 76.161086030832 -0.5 Z"/><text text-anchor="middle" pointer-events="none" font-size="8px" fill="#000000" x="66.493117280832" y="3" transform="rotate(180 66.493117280832 0)" font-family="sans-serif">trek</text></g><g class="relationship" transform="translate(170.58986378090358 256.49026977375263) rotate(321.2321369618028)"><path class="outline" fill="#A5ABB6" stroke="none" d="M 24.018736134675446,6.953439040707552 L 24.277555179777966,5.987513214418485 A 109.26306956207306 109.26306956207306 0 0 0 39.91644182895424,8.976920360790942 L 39.80075336504312,9.970205908515211 A 110.26306956207306 110.26306956207306 0 0 1 24.018736134675446,6.953439040707552 Z M 61.87299470037165,10.316301658501374 L 61.78850515887269,9.319877292391581 A 109.26306956207306 109.26306956207306 0 0 0 77.51342911467398,6.822258967500503 L 76.82820644870196,3.9015621502943425 L 84.4425921324837,5.710188883100153 L 78.42705933597,10.716521390442052 L 77.74183666999798,7.795824573235891 A 110.26306956207306 110.26306956207306 0 0 1 61.87299470037165,10.316301658501374"/><text text-anchor="middle" pointer-events="none" font-size="8px" fill="#000000" x="50.836030171826415" y="13.19707097432611" font-family="sans-serif">road</text></g><g class="relationship" transform="translate(255.4058166638132 188.37478391699057) rotate(283.2526157414571)"><path class="outline" fill="#A5ABB6" stroke="none" d="M 25 0.5 L 44.25516772833084 0.5 L 44.25516772833084 -0.5 L 25 -0.5 Z M 63.59110522833084 0.5 L 82.84627295666168 0.5 L 82.84627295666168 3.5 L 89.84627295666168 0 L 82.84627295666168 -3.5 L 82.84627295666168 -0.5 L 63.59110522833084 -0.5 Z"/><text text-anchor="middle" pointer-events="none" font-size="8px" fill="#000000" x="53.92313647833084" y="3" font-family="sans-serif">trek</text></g><g class="relationship" transform="translate(255.4058166638132 188.37478391699057) rotate(283.2526157414571)"><path class="outline" fill="#A5ABB6" stroke="none" d="M 21.40063509461097,12.933012701892217 L 21.90063509461097,12.06698729810778 A 67.57079337667818 67.57079337667818 0 0 0 31.236436042352654,16.541259920727157 L 30.87459930019245,17.47350139804024 A 68.57079337667818 68.57079337667818 0 0 1 21.40063509461097,12.933012701892217 Z M 76.75810188865418,18.801715083844826 L 76.45079801964468,17.850103644184813 A 67.57079337667818 67.57079337667818 0 0 0 86.02978735588776,13.923367323330497 L 84.68258892636285,11.242871773719266 L 92.50881004323479,11.226653579374243 L 87.82605192858765,17.497361389478804 L 86.47885349906274,14.816865839867573 A 68.57079337667818 68.57079337667818 0 0 1 76.75810188865418,18.801715083844826"/><text text-anchor="middle" pointer-events="none" font-size="8px" fill="#000000" x="53.7163760886566" y="24.591254700960903" font-family="sans-serif">twowheeler</text></g><g class="relationship" transform="translate(281.73373082996045 76.58700574917822) rotate(194.50774490873096)"><path class="outline" fill="#A5ABB6" stroke="none" d="M 25 0.5 L 43.58017653401852 0.5 L 43.58017653401852 -0.5 L 25 -0.5 Z M 65.59189528401852 0.5 L 84.17207181803704 0.5 L 84.17207181803704 3.5 L 91.17207181803704 0 L 84.17207181803704 -3.5 L 84.17207181803704 -0.5 L 65.59189528401852 -0.5 Z"/><text text-anchor="middle" pointer-events="none" font-size="8px" fill="#000000" x="54.58603590901852" y="3" transform="rotate(180 54.58603590901852 0)" font-family="sans-serif">road</text></g><g class="relationship" transform="translate(281.73373082996045 76.58700574917822) rotate(194.50774490873096)"><path class="outline" fill="#A5ABB6" stroke="none" d="M 21.40063509461097,-12.933012701892217 L 21.90063509461097,-12.06698729810778 A 68.93624120688375 68.93624120688375 0 0 1 31.87718260905371,-16.80532297543803 L 31.52190398259803,-17.740083424742423 A 69.93624120688375 69.93624120688375 0 0 0 21.40063509461097,-12.933012701892217 Z M 77.43420703473936,-19.054715462406236 L 77.1329976621285,-18.10115743383568 A 68.93624120688375 68.93624120688375 0 0 1 87.3643278471632,-13.941444950527211 L 86.01544785574809,-11.261795203123649 L 93.8416572563407,-11.240666595125887 L 89.16283450238335,-17.51431128039863 L 87.81395451096824,-14.834661532995066 A 69.93624120688375 69.93624120688375 0 0 0 77.43420703473936,-19.054715462406236"/><text text-anchor="middle" pointer-events="none" font-size="8px" fill="#000000" x="54.381364441254235" y="-18.774245178641408" transform="rotate(180 54.381364441254235 -21.774245178641408)" font-family="sans-serif">twowheeler</text></g><g class="relationship" transform="translate(170.58986378090358 256.49026977375263) rotate(259.5081814452308)"><path class="outline" fill="#A5ABB6" stroke="none" d="M 21.40063509461097,12.933012701892217 L 21.90063509461097,12.06698729810778 A 67.16487351929801 67.16487351929801 0 0 0 43.9932705322673,20.075304709364374 L 43.82220192571821,21.060563828506815 A 68.16487351929801 68.16487351929801 0 0 1 21.40063509461097,12.933012701892217 Z M 63.226629796593706,21.624110151825278 L 63.113029381269214,20.63058363197888 A 67.16487351929801 67.16487351929801 0 0 0 85.63319383380653,13.917917889421851 L 84.28650230891814,11.237167633095506 L 92.11272635271608,11.222429374069986 L 87.42878253365772,17.492251564523645 L 86.08209100876934,14.8115013081973 A 68.16487351929801 68.16487351929801 0 0 1 63.226629796593706,21.624110151825278"/><text text-anchor="middle" pointer-events="none" font-size="8px" fill="#000000" x="53.518766602143835" y="24.536856294948493" transform="rotate(180 53.518766602143835 21.536856294948493)" font-family="sans-serif">trek</text></g><g class="relationship" transform="translate(149.74865614654811 143.9514953634836) rotate(281.4377550802219)"><path class="outline" fill="#A5ABB6" stroke="none" d="M 25 0.5 L 36.04274911639999 0.5 L 36.04274911639999 -0.5 L 25 -0.5 Z M 55.37868661639999 0.5 L 66.42143573279998 0.5 L 66.42143573279998 3.5 L 73.42143573279998 0 L 66.42143573279998 -3.5 L 66.42143573279998 -0.5 L 55.37868661639999 -0.5 Z"/><text text-anchor="middle" pointer-events="none" font-size="8px" fill="#000000" x="45.71071786639999" y="3" font-family="sans-serif">trek</text></g><g class="relationship" transform="translate(170.58986378090358 256.49026977375263) rotate(259.5081814452308)"><path class="outline" fill="#A5ABB6" stroke="none" d="M 25 0.5 L 42.720296536051166 0.5 L 42.720296536051166 -0.5 L 25 -0.5 Z M 64.73201528605117 0.5 L 82.45231182210233 0.5 L 82.45231182210233 3.5 L 89.45231182210233 0 L 82.45231182210233 -3.5 L 82.45231182210233 -0.5 L 64.73201528605117 -0.5 Z"/><text text-anchor="middle" pointer-events="none" font-size="8px" fill="#000000" x="53.726155911051166" y="3" transform="rotate(180 53.726155911051166 0)" font-family="sans-serif">road</text></g><g class="relationship" transform="translate(170.58986378090358 256.49026977375263) rotate(259.5081814452308)"><path class="outline" fill="#A5ABB6" stroke="none" d="M 21.40063509461097,-12.933012701892217 L 21.90063509461097,-12.06698729810778 A 67.16487351929801 67.16487351929801 0 0 1 24.159400145749878,-13.313864620105768 L 23.693030299918036,-14.198454449856698 A 68.16487351929801 68.16487351929801 0 0 0 21.40063509461097,-12.933012701892217 Z M 83.72011921264243,-15.941770227130853 L 83.30587290218183,-15.031605410040136 A 67.16487351929801 67.16487351929801 0 0 1 85.63319383380653,-13.917917889421851 L 84.28650230891814,-11.237167633095506 L 92.11272635271608,-11.222429374069986 L 87.42878253365772,-17.492251564523645 L 86.08209100876934,-14.8115013081973 A 68.16487351929801 68.16487351929801 0 0 0 83.72011921264243,-15.941770227130853"/><text text-anchor="middle" pointer-events="none" font-size="8px" fill="#000000" x="53.51876660214384" y="-18.536856294948493" transform="rotate(180 53.51876660214384 -21.536856294948493)" font-family="sans-serif">PublicTransport</text></g><g class="relationship" transform="translate(149.74865614654811 143.9514953634836) rotate(240.04273193244006)"><path class="outline" fill="#A5ABB6" stroke="none" d="M 24.018736134675446,-6.953439040707552 L 24.277555179777966,-5.987513214418485 A 176.03155814627235 176.03155814627235 0 0 1 58.069170480545246,-11.591800322535732 L 58.00231482914676,-12.58956298062435 A 177.03155814627235 177.03155814627235 0 0 0 24.018736134675446,-6.953439040707552 Z M 77.38189879143444,-12.824829527582978 L 77.33928478575474,-11.825737916908594 A 176.03155814627235 176.03155814627235 0 0 1 111.25699241375717,-7.043436390801706 L 110.55111129989062,-4.127663448152278 L 118.1781094655836,-5.882342615554643 L 112.19816723224592,-10.931133647667611 L 111.49228611837937,-8.015360705018182 A 177.03155814627235 177.03155814627235 0 0 0 77.38189879143444,-12.824829527582978"/><text text-anchor="middle" pointer-events="none" font-size="8px" fill="#000000" x="67.69495435062163" y="-9.47263614496498" transform="rotate(180 67.69495435062163 -12.47263614496498)" font-family="sans-serif">trek</text></g><g class="relationship" transform="translate(78.6025916719586 20.510375748190537) rotate(526.0379124995643)"><path class="outline" fill="#A5ABB6" stroke="none" d="M 24.018736134675446,-6.953439040707552 L 24.277555179777966,-5.987513214418485 A 98.39890704597234 98.39890704597234 0 0 1 25.270877402451553,-6.2481252241917105 L 25.022153207510424,-7.216699575932907 A 99.39890704597234 99.39890704597234 0 0 0 24.018736134675446,-6.953439040707552 Z M 71.28732319734469,-7.977924127172443 L 71.07059790833489,-7.001691496544055 A 98.39890704597234 98.39890704597234 0 0 1 72.07195610087516,-6.773898985851267 L 71.39125068155899,-3.8521460647243617 L 79.00283048672397,-5.672545160968037 L 72.97956332663004,-10.669569547353808 L 72.29885790731387,-7.747816626226903 A 99.39890704597234 99.39890704597234 0 0 0 71.28732319734469,-7.977924127172443"/><text text-anchor="middle" pointer-events="none" font-size="8px" fill="#000000" x="48.11805215661229" y="-6.826990522759729" transform="rotate(180 48.11805215661229 -9.82699052275973)" font-family="sans-serif">twowheeler</text></g><g class="relationship" transform="translate(-21.69474257416749 45.44682922423664) rotate(405.83965554176166)"><path class="outline" fill="#A5ABB6" stroke="none" d="M 24.018736134675446,6.953439040707552 L 24.277555179777966,5.987513214418485 A 90.93257695949758 90.93257695949758 0 0 0 26.028199970993228,6.437995580360109 L 25.788633044875468,7.408875432818945 A 91.93257695949758 91.93257695949758 0 0 1 24.018736134675446,6.953439040707552 Z M 66.78490582768343,8.106997592732313 L 66.57853428303615,7.128523890704557 A 90.93257695949758 90.93257695949758 0 0 0 68.34350205708272,6.737908602203887 L 67.66615852983129,3.815374471335508 L 75.27563895031751,5.6445293937619425 L 69.24662676008462,10.634620776695058 L 68.5692832328332,7.7120866458266795 A 91.93257695949758 91.93257695949758 0 0 1 66.78490582768343,8.106997592732313"/><text text-anchor="middle" pointer-events="none" font-size="8px" fill="#000000" x="46.25586578172524" y="12.572711526144758" font-family="sans-serif">twowhe…</text></g><g class="relationship" transform="translate(149.74865614654811 143.9514953634836) rotate(240.04273193244006)"><path class="outline" fill="#A5ABB6" stroke="none" d="M 24.018736134675446,6.953439040707552 L 24.277555179777966,5.987513214418485 A 176.03155814627235 176.03155814627235 0 0 0 44.621400600717585,10.170154493195412 L 44.47815086395485,11.159841066266608 A 177.03155814627235 177.03155814627235 0 0 1 24.018736134675446,6.953439040707552 Z M 90.93678532301335,11.723845047304906 L 90.81760368908978,10.730972579091912 A 176.03155814627235 176.03155814627235 0 0 0 111.25699241375717,7.043436390801706 L 110.55111129989062,4.127663448152278 L 118.1781094655836,5.882342615554643 L 112.19816723224592,10.931133647667611 L 111.49228611837937,8.015360705018182 A 177.03155814627235 177.03155814627235 0 0 1 90.93678532301335,11.723845047304906"/><text text-anchor="middle" pointer-events="none" font-size="8px" fill="#000000" x="67.69495435062169" y="15.47263614496498" transform="rotate(180 67.69495435062169 12.47263614496498)" font-family="sans-serif">twowheeler</text></g><g class="relationship" transform="translate(78.6025916719586 20.510375748190537) rotate(526.0379124995643)"><path class="outline" fill="#A5ABB6" stroke="none" d="M 24.018736134675446,6.953439040707552 L 24.277555179777966,5.987513214418485 A 98.39890704597234 98.39890704597234 0 0 0 38.5315284831458,8.699339306025166 L 38.4175684993,9.692824646672861 A 99.39890704597234 99.39890704597234 0 0 1 24.018736134675446,6.953439040707552 Z M 57.81769884785988,10.012024933234343 L 57.736484348151365,9.015328286788147 A 98.39890704597234 98.39890704597234 0 0 0 72.07195610087516,6.773898985851267 L 71.39125068155899,3.8521460647243617 L 79.00283048672397,5.672545160968037 L 72.97956332663004,10.669569547353808 L 72.29885790731387,7.747816626226903 A 99.39890704597234 99.39890704597234 0 0 1 57.81769884785988,10.012024933234343"/><text text-anchor="middle" pointer-events="none" font-size="8px" fill="#000000" x="48.11805215661232" y="12.82699052275973" transform="rotate(180 48.11805215661232 9.82699052275973)" font-family="sans-serif">trek</text></g><g class="relationship" transform="translate(-21.69474257416749 45.44682922423664) rotate(405.83965554176166)"><path class="outline" fill="#A5ABB6" stroke="none" d="M 24.018736134675446,-6.953439040707552 L 24.277555179777966,-5.987513214418485 A 90.93257695949758 90.93257695949758 0 0 1 36.6772253221618,-8.401580565008913 L 36.55476742019401,-9.39405427360056 A 91.93257695949758 91.93257695949758 0 0 0 24.018736134675446,-6.953439040707552 Z M 55.957422362293215,-9.72446048998988 L 55.868827168788144,-8.728392775580971 A 90.93257695949758 90.93257695949758 0 0 1 68.34350205708272,-6.737908602203887 L 67.66615852983129,-3.815374471335508 L 75.27563895031751,-5.6445293937619425 L 69.24662676008462,-10.634620776695058 L 68.5692832328332,-7.7120866458266795 A 91.93257695949758 91.93257695949758 0 0 0 55.957422362293215,-9.72446048998988"/><text text-anchor="middle" pointer-events="none" font-size="8px" fill="#000000" x="46.25586578172523" y="-6.572711526144744" font-family="sans-serif">trek</text></g><g class="relationship" transform="translate(149.74865614654811 143.9514953634836) rotate(382.80419723349934)"><path class="outline" fill="#A5ABB6" stroke="none" d="M 25 0.5 L 44.14011125290898 0.5 L 44.14011125290898 -0.5 L 25 -0.5 Z M 63.47604875290898 0.5 L 82.61616000581796 0.5 L 82.61616000581796 3.5 L 89.61616000581796 0 L 82.61616000581796 -3.5 L 82.61616000581796 -0.5 L 63.47604875290898 -0.5 Z"/><text text-anchor="middle" pointer-events="none" font-size="8px" fill="#000000" x="53.80808000290898" y="3" font-family="sans-serif">trek</text></g><g class="relationship" transform="translate(78.6025916719586 20.510375748190537) rotate(211.67749803224712)"><path class="outline" fill="#A5ABB6" stroke="none" d="M 24.018736134675446,-6.953439040707552 L 24.277555179777966,-5.987513214418485 A 139.33163491779447 139.33163491779447 0 0 1 48.7872673072022,-10.255411592662568 L 48.70435743119746,-11.251968641938163 A 140.33163491779447 140.33163491779447 0 0 0 24.018736134675446,-6.953439040707552 Z M 68.0921144792394,-11.52079887988026 L 68.03686764482458,-10.522326152517536 A 139.33163491779447 139.33163491779447 0 0 1 92.65549127515935,-6.935640261036643 L 91.95967825152438,-4.017448314618457 L 99.58057465407427,-5.798441863624744 L 93.5832419733393,-10.82656285626089 L 92.88742894970433,-7.908370909842705 A 140.33163491779447 140.33163491779447 0 0 0 68.0921144792394,-11.52079887988026"/><text text-anchor="middle" pointer-events="none" font-size="8px" fill="#000000" x="58.40051969127413" y="-8.221683092752869" transform="rotate(180 58.40051969127413 -11.221683092752869)" font-family="sans-serif">trek</text></g><g class="relationship" transform="translate(-26.837479497065328 -44.553547910376906) rotate(446.72960203660904)"><path class="outline" fill="#A5ABB6" stroke="none" d="M 21.40063509461097,12.933012701892217 L 21.90063509461097,12.06698729810778 A 41.91982372766947 41.91982372766947 0 0 0 31.910709407035135,16.227816953729622 L 31.6495003518028,17.19309920751067 A 42.91982372766947 42.91982372766947 0 0 1 21.40063509461097,12.933012701892217 Z M 51.031597833687194,17.898200422161864 L 50.841218420037045,16.916489834025917 A 41.91982372766947 41.91982372766947 0 0 0 61.1271659403439,13.494009041844762 L 59.81991194753849,10.793807753367489 L 67.6455112789251,10.893783273378366 L 62.87017126408444,17.094277426481128 L 61.562917271279034,14.394076138003854 A 42.91982372766947 42.91982372766947 0 0 1 51.031597833687194,17.898200422161864"/><text text-anchor="middle" pointer-events="none" font-size="8px" fill="#000000" x="41.31837657183625" y="21.155136726421105" font-family="sans-serif">trek</text></g><g class="relationship" transform="translate(78.6025916719586 20.510375748190537) rotate(211.67749803224712)"><path class="outline" fill="#A5ABB6" stroke="none" d="M 24.018736134675446,6.953439040707552 L 24.277555179777966,5.987513214418485 A 139.33163491779447 139.33163491779447 0 0 0 35.393276448213435,8.483770203691137 L 35.21423627942277,9.467611968386791 A 140.33163491779447 140.33163491779447 0 0 1 24.018736134675446,6.953439040707552 Z M 81.62652345481168,10.111163781723349 L 81.47483073359805,9.122736081620388 A 139.33163491779447 139.33163491779447 0 0 0 92.65549127515935,6.935640261036643 L 91.95967825152438,4.017448314618457 L 99.58057465407427,5.798441863624744 L 93.5832419733393,10.82656285626089 L 92.88742894970433,7.908370909842705 A 140.33163491779447 140.33163491779447 0 0 1 81.62652345481168,10.111163781723349"/><text text-anchor="middle" pointer-events="none" font-size="8px" fill="#000000" x="58.40051969127414" y="14.221683092752869" transform="rotate(180 58.40051969127414 11.221683092752869)" font-family="sans-serif">twowheeler</text></g><g class="relationship" transform="translate(-26.837479497065328 -44.553547910376906) rotate(446.72960203660904)"><path class="outline" fill="#A5ABB6" stroke="none" d="M 25 0.5 L 30.567734966451198 0.5 L 30.567734966451198 -0.5 L 25 -0.5 Z M 52.5794537164512 0.5 L 58.147188682902396 0.5 L 58.147188682902396 3.5 L 65.1471886829024 0 L 58.147188682902396 -3.5 L 58.147188682902396 -0.5 L 52.5794537164512 -0.5 Z"/><text text-anchor="middle" pointer-events="none" font-size="8px" fill="#000000" x="41.5735943414512" y="3" font-family="sans-serif">road</text></g><g class="relationship" transform="translate(-26.837479497065328 -44.553547910376906) rotate(446.72960203660904)"><path class="outline" fill="#A5ABB6" stroke="none" d="M 21.40063509461097,-12.933012701892217 L 21.90063509461097,-12.06698729810778 A 41.91982372766947 41.91982372766947 0 0 1 21.991380652114266,-12.119228267706248 L 21.493545393027606,-12.986499883066813 A 42.91982372766947 42.91982372766947 0 0 0 21.40063509461097,-12.933012701892217 Z M 61.466366092375495,-14.440670901166783 L 61.032864332163584,-13.539518181649619 A 41.91982372766947 41.91982372766947 0 0 1 61.1271659403439,-13.494009041844762 L 59.81991194753849,-10.793807753367489 L 67.6455112789251,-10.893783273378366 L 62.87017126408444,-17.094277426481128 L 61.562917271279034,-14.394076138003854 A 42.91982372766947 42.91982372766947 0 0 0 61.466366092375495,-14.440670901166783"/><text text-anchor="middle" pointer-events="none" font-size="8px" fill="#000000" x="41.31837657183623" y="-15.155136726421105" font-family="sans-serif">twowhe…</text></g><g class="relationship" transform="translate(-26.837479497065328 -44.553547910376906) rotate(469.9431410784412)"><path class="outline" fill="#A5ABB6" stroke="none" d="M 25 0.5 L 52.4294832676071 0.5 L 52.4294832676071 -0.5 L 25 -0.5 Z M 71.7654207676071 0.5 L 99.1949040352142 0.5 L 99.1949040352142 3.5 L 106.1949040352142 0 L 99.1949040352142 -3.5 L 99.1949040352142 -0.5 L 71.7654207676071 -0.5 Z"/><text text-anchor="middle" pointer-events="none" font-size="8px" fill="#000000" x="62.0974520176071" y="3" transform="rotate(180 62.0974520176071 0)" font-family="sans-serif">trek</text></g><g class="relationship" transform="translate(-71.58641440469746 78.77380375761912) rotate(377.73189783563697)"><path class="outline" fill="#A5ABB6" stroke="none" d="M 25 0.5 L 49.45766639345278 0.5 L 49.45766639345278 -0.5 L 25 -0.5 Z M 68.79360389345278 0.5 L 93.25127028690557 0.5 L 93.25127028690557 3.5 L 100.25127028690557 0 L 93.25127028690557 -3.5 L 93.25127028690557 -0.5 L 68.79360389345278 -0.5 Z"/><text text-anchor="middle" pointer-events="none" font-size="8px" fill="#000000" x="59.12563514345278" y="3" font-family="sans-serif">trek</text></g></g><g class="layer nodes"><g class="node" transform="translate(170.58986378090358,256.49026977375263)"><circle class="outline" cx="0" cy="0" r="25" fill="#F79767" stroke="#f36924" stroke-width="2px"/><text text-anchor="middle" pointer-events="none" font-family="sans-serif" dy="1.5625" font-size="25" fill="#FFFFFF"/><text text-anchor="middle" pointer-events="none" y="5" font-size="10px" fill="#FFFFFF" font-family="sans-serif"> Darjeeling</text></g><g class="node" transform="translate(255.4058166638132,188.37478391699057)"><circle class="outline" cx="0" cy="0" r="25" fill="#57C7E3" stroke="#23b3d7" stroke-width="2px"/><text text-anchor="middle" pointer-events="none" font-family="sans-serif" dy="1.5625" font-size="25" fill="#FFFFFF"/><text text-anchor="middle" pointer-events="none" y="5" font-size="10px" fill="#FFFFFF" font-family="sans-serif"> Tumbling</text></g><g class="node" transform="translate(281.73373082996045,76.58700574917822)"><circle class="outline" cx="0" cy="0" r="25" fill="#57C7E3" stroke="#23b3d7" stroke-width="2px"/><text text-anchor="middle" pointer-events="none" font-family="sans-serif" dy="1.5625" font-size="25" fill="#FFFFFF"/><text text-anchor="middle" pointer-events="none" y="5" font-size="10px" fill="#FFFFFF" font-family="sans-serif"> Gairibus</text></g><g class="node" transform="translate(169.26594648189044,47.48463893252264)"><circle class="outline" cx="0" cy="0" r="25" fill="#57C7E3" stroke="#23b3d7" stroke-width="2px"/><text text-anchor="middle" pointer-events="none" font-family="sans-serif" dy="1.5625" font-size="25" fill="#FFFFFF"/><text text-anchor="middle" pointer-events="none" y="5" font-size="10px" fill="#FFFFFF" font-family="sans-serif"> BhikeBh…</text></g><g class="node" transform="translate(47.71442750853876,116.92075418981608)"><circle class="outline" cx="0" cy="0" r="25" fill="#F16667" stroke="#eb2728" stroke-width="2px"/><text text-anchor="middle" pointer-events="none" font-family="sans-serif" dy="1.5625" font-size="25" fill="#FFFFFF"/><text text-anchor="middle" pointer-events="none" y="5" font-size="10px" fill="#FFFFFF" font-family="sans-serif"> Sandak…</text></g><g class="node" transform="translate(149.74865614654811,143.9514953634836)"><circle class="outline" cx="0" cy="0" r="25" fill="#F79767" stroke="#f36924" stroke-width="2px"/><text text-anchor="middle" pointer-events="none" font-family="sans-serif" dy="1.5625" font-size="25" fill="#FFFFFF"/><text text-anchor="middle" pointer-events="none" y="5" font-size="10px" fill="#FFFFFF" font-family="sans-serif"> Rimbik</text></g><g class="node" transform="translate(78.6025916719586,20.510375748190537)"><circle class="outline" cx="0" cy="0" r="25" fill="#57C7E3" stroke="#23b3d7" stroke-width="2px"/><text text-anchor="middle" pointer-events="none" font-family="sans-serif" dy="1.5625" font-size="25" fill="#FFFFFF"/><text text-anchor="middle" pointer-events="none" y="5" font-size="10px" fill="#FFFFFF" font-family="sans-serif"> Sirikhola</text></g><g class="node" transform="translate(-21.69474257416749,45.44682922423664)"><circle class="outline" cx="0" cy="0" r="25" fill="#57C7E3" stroke="#23b3d7" stroke-width="2px"/><text text-anchor="middle" pointer-events="none" font-family="sans-serif" dy="1.5625" font-size="25" fill="#FFFFFF"/><text text-anchor="middle" pointer-events="none" y="5" font-size="10px" fill="#FFFFFF" font-family="sans-serif"> Gurdum</text></g><g class="node" transform="translate(-26.837479497065328,-44.553547910376906)"><circle class="outline" cx="0" cy="0" r="25" fill="#57C7E3" stroke="#23b3d7" stroke-width="2px"/><text text-anchor="middle" pointer-events="none" font-family="sans-serif" dy="1.5625" font-size="25" fill="#FFFFFF"/><text text-anchor="middle" pointer-events="none" y="5" font-size="10px" fill="#FFFFFF" font-family="sans-serif"> Rammam</text></g><g class="node" transform="translate(-71.58641440469746,78.77380375761912)"><circle class="outline" cx="0" cy="0" r="25" fill="#F16667" stroke="#eb2728" stroke-width="2px"/><text text-anchor="middle" pointer-events="none" font-family="sans-serif" dy="1.5625" font-size="25" fill="#FFFFFF"/><text text-anchor="middle" pointer-events="none" y="5" font-size="10px" fill="#FFFFFF" font-family="sans-serif"> Sabargr…</text></g></g></svg>