<svg xmlns="http://www.w3.org/2000/svg" width="199.44772338867188" height="211.48348999023438" viewBox="24.254714965820312 -19.728439331054688 199.44772338867188 211.48348999023438"><title>Neo4j Graph Visualization</title><desc>Created using Neo4j (http://www.neo4j.com/)</desc><g class="layer relationships"><g class="relationship" transform="translate(134.1137036470371 162.75505571237946) rotate(283.3732612848921)"><path class="outline" fill="#A5ABB6" stroke="none" d="M 5.987513214418485,-24.277555179777966 L 6.953439040707552,-24.018736134675446 A 45.87300103208263 45.87300103208263 0 0 1 37.92980404547134,-56.03839647931328 L 37.63914175781798,-56.99522218681497 A 46.87300103208263 46.87300103208263 0 0 0 5.987513214418485,-24.277555179777966 Z M 59.19235144389652,-58.343432434019256 L 59.023192315990705,-57.357843681320574 A 45.87300103208263 45.87300103208263 0 0 1 93.74830719949978,-29.447984602109564 L 90.96987866136213,-28.31646577395764 L 96.85158922154388,-23.153571151147048 L 97.4528785836833,-30.956676372978798 L 94.67445004554565,-29.825157544826872 A 46.87300103208263 46.87300103208263 0 0 0 59.19235144389652,-58.343432434019256"/><text text-anchor="middle" pointer-events="none" font-size="8px" fill="#000000" x="48.368260136563165" y="-55.42847131210617" font-family="sans-serif">LOT</text></g><g class="relationship" transform="translate(158.6958309477695 59.35606422438225) rotate(187.21289007847548)"><path class="outline" fill="#A5ABB6" stroke="none" d="M 5.987513214418485,24.277555179777966 L 6.953439040707552,24.018736134675446 A 45.87368042021109 45.87368042021109 0 0 0 37.930444360999914,56.038925847027016 L 37.639786030942616,56.99575275674909 A 46.87368042021109 46.87368042021109 0 0 1 5.987513214418485,24.277555179777966 Z M 59.19299904155592,58.34394740043889 L 59.023842549790096,57.35835819529637 A 45.87368042021109 45.87368042021109 0 0 0 93.74961793551414,29.448002918291294 L 90.97118774368184,28.316488150771786 L 96.85289075836504,23.153584931935843 L 97.45419152462387,30.95668927498397 L 94.67576133279157,29.82517450746446 A 46.87368042021109 46.87368042021109 0 0 1 59.19299904155592,58.34394740043889"/><text text-anchor="middle" pointer-events="none" font-size="8px" fill="#000000" x="48.36890778159147" y="61.42897565195729" transform="rotate(180 48.36890778159147 58.42897565195729)" font-family="sans-serif">LOT</text></g><g class="relationship" transform="translate(134.1137036470371 162.75505571237946) rotate(283.3732612848921)"><path class="outline" fill="#A5ABB6" stroke="none" d="M 14.44320574945421,-20.411854586953456 L 15.247803529220876,-19.818034401379958 A 44.76218160607493 44.76218160607493 0 0 1 27.700634621978587,-31.295869304227942 L 27.1742366672863,-32.14610761981704 A 45.76218160607493 45.76218160607493 0 0 0 14.44320574945421,-20.411854586953456 Z M 71.26919104301177,-34.39489603149725 L 70.83202142229214,-33.495516955289744 A 44.76218160607493 44.76218160607493 0 0 1 84.38791799066837,-23.344095157862817 L 82.16788125417528,-21.326314969482247 L 89.46607788630521,-18.500306137442376 L 87.34796697265915,-26.034468742370244 L 85.12793023616607,-24.016688553989674 A 45.76218160607493 45.76218160607493 0 0 0 71.26919104301177,-34.39489603149725"/><text text-anchor="middle" pointer-events="none" font-size="8px" fill="#000000" x="48.95803587956797" y="-35.44078296137477" font-family="sans-serif">LOTBiznes</text></g><g class="relationship" transform="translate(134.1137036470371 162.75505571237946) rotate(283.3732612848921)"><path class="outline" fill="#A5ABB6" stroke="none" d="M 20.90208894244944,-13.724164012497553 L 21.434121018964774,-12.87743981326927 A 56.066609072501194 56.066609072501194 0 0 1 38.82354529036874,-20.07363344118305 L 38.60166973230661,-21.048708431496415 A 57.066609072501194 57.066609072501194 0 0 0 20.90208894244944,-13.724164012497553 Z M 60.20753535680931,-21.765815123066787 L 60.05080307439062,-20.7781739981394 A 56.066609072501194 56.066609072501194 0 0 1 77.87912012655205,-14.750870263555425 L 76.454969543886,-12.110454554260404 L 84.27744854535145,-11.867921522217129 L 79.7779875701068,-18.271424542615453 L 78.35383698744074,-15.631008833320431 A 57.066609072501194 57.066609072501194 0 0 0 60.20753535680931,-21.765815123066787"/><text text-anchor="middle" pointer-events="none" font-size="8px" fill="#000000" x="49.386921992613395" y="-18.939963025187573" font-family="sans-serif">LOT</text></g><g class="relationship" transform="translate(134.1137036470371 162.75505571237946) rotate(283.3732612848921)"><path class="outline" fill="#A5ABB6" stroke="none" d="M 24.471206027250748,-5.139073415689509 L 24.657117634413662,-4.15650694245622 A 143.11230072500229 143.11230072500229 0 0 1 38.89126318681156,-6.115670964659671 L 38.80481295005697,-7.111927134811253 A 144.11230072500229 144.11230072500229 0 0 0 24.471206027250748,-5.139073415689509 Z M 60.416728475030396,-7.360474505689552 L 60.35321291832913,-6.3624936571473825 A 143.11230072500229 143.11230072500229 0 0 1 74.628650412188,-4.731203483182702 L 74.13885404611382,-1.7714569535318043 L 81.61635837571912,-4.081636383951446 L 75.28171223362021,-8.6775321893839 L 74.79191586754604,-5.717785659733002 A 144.11230072500229 144.11230072500229 0 0 0 60.416728475030396,-7.360474505689552"/><text text-anchor="middle" pointer-events="none" font-size="8px" fill="#000000" x="49.611854494229725" y="-4.141962856020854" font-family="sans-serif">LOT</text></g><g class="relationship" transform="translate(158.6958309477695 59.35606422438225) rotate(463.3732612848921)"><path class="outline" fill="#A5ABB6" stroke="none" d="M 24.471206027250748,-5.139073415689509 L 24.657117634413662,-4.15650694245622 A 143.11230072500229 143.11230072500229 0 0 1 38.89126318681156,-6.115670964659671 L 38.80481295005697,-7.111927134811253 A 144.11230072500229 144.11230072500229 0 0 0 24.471206027250748,-5.139073415689509 Z M 60.416728475030396,-7.360474505689552 L 60.35321291832913,-6.3624936571473825 A 143.11230072500229 143.11230072500229 0 0 1 74.628650412188,-4.731203483182702 L 74.13885404611382,-1.7714569535318043 L 81.61635837571912,-4.081636383951446 L 75.28171223362021,-8.6775321893839 L 74.79191586754604,-5.717785659733002 A 144.11230072500229 144.11230072500229 0 0 0 60.416728475030396,-7.360474505689552"/><text text-anchor="middle" pointer-events="none" font-size="8px" fill="#000000" x="49.611854494229725" y="-4.141962856020854" transform="rotate(180 49.611854494229725 -7.141962856020854)" font-family="sans-serif">LOT</text></g><g class="relationship" transform="translate(158.6958309477695 59.35606422438225) rotate(187.21289007847548)"><path class="outline" fill="#A5ABB6" stroke="none" d="M 9.265372650015623,23.225048324090576 L 10.18659379640068,22.83600899516225 A 44.59018127222861 44.59018127222861 0 0 0 38.165541694885924,48.111606995575826 L 37.87178935666,49.06748855925764 A 45.59018127222861 45.59018127222861 0 0 1 9.265372650015623,23.225048324090576 Z M 59.42473226783718,50.34251820276242 L 59.24573055442904,49.35866944070753 A 44.59018127222861 44.59018127222861 0 0 0 90.00960697519095,27.558181204139288 L 87.40282713055718,26.073358372414507 L 93.90865688998774,21.723165371947985 L 93.48531343470263,29.53794497977233 L 90.87853359006887,28.05312214804755 A 45.59018127222861 45.59018127222861 0 0 1 59.42473226783718,50.34251820276242"/><text text-anchor="middle" pointer-events="none" font-size="8px" fill="#000000" x="48.601220787318574" y="53.50016212655112" transform="rotate(180 48.601220787318574 50.50016212655112)" font-family="sans-serif">LOT</text></g><g class="relationship" transform="translate(158.6958309477695 59.35606422438225) rotate(187.21289007847548)"><path class="outline" fill="#A5ABB6" stroke="none" d="M 12.367599250055084,21.732291383791928 L 13.226653204424968,21.22040633470233 A 44.27819499299781 44.27819499299781 0 0 0 38.37337796067696,40.91530244926105 L 38.08224970337375,41.87198648163516 A 45.27819499299781 45.27819499299781 0 0 1 12.367599250055084,21.732291383791928 Z M 59.63937035834131,43.05189514005886 L 59.45439481649129,42.069152015474785 A 44.27819499299781 44.27819499299781 0 0 0 86.60042316817025,25.236450400469618 L 84.20625975647938,23.428694455071913 L 91.21754760938003,19.95136176409055 L 89.79264105042473,27.646791660999895 L 87.39847763873387,25.83903571560219 A 45.27819499299781 45.27819499299781 0 0 1 59.63937035834131,43.05189514005886"/><text text-anchor="middle" pointer-events="none" font-size="8px" fill="#000000" x="48.816782437969515" y="46.26633200270645" transform="rotate(180 48.816782437969515 43.26633200270645)" font-family="sans-serif">LOT</text></g><g class="relationship" transform="translate(158.6958309477695 59.35606422438225) rotate(187.21289007847548)"><path class="outline" fill="#A5ABB6" stroke="none" d="M 15.235387732235946,19.82758080675589 L 16.015990413247987,19.20255324384621 A 45.15488115743333 45.15488115743333 0 0 0 38.54916452756461,34.30728138725657 L 38.26758152143012,35.266818260261594 A 46.15488115743333 46.15488115743333 0 0 1 15.235387732235946,19.82758080675589 Z M 59.83407442029485,36.3317634291868 L 59.64839389204168,35.34915326160882 A 45.15488115743333 45.15488115743333 0 0 0 83.56005080425807,22.537853106476394 L 81.4143665545662,20.441179765055686 L 88.80990264252169,17.880702080765502 L 86.42096313718055,25.333417561704003 L 84.27527888748868,23.236744220283295 A 46.15488115743333 46.15488115743333 0 0 1 59.83407442029485,36.3317634291868"/><text text-anchor="middle" pointer-events="none" font-size="8px" fill="#000000" x="49.01233465275097" y="39.5788294500249" transform="rotate(180 49.01233465275097 36.5788294500249)" font-family="sans-serif">LOT</text></g><g class="relationship" transform="translate(158.6958309477695 59.35606422438225) rotate(463.3732612848921)"><path class="outline" fill="#A5ABB6" stroke="none" d="M 20.90208894244944,-13.724164012497553 L 21.434121018964774,-12.87743981326927 A 56.066609072501194 56.066609072501194 0 0 1 38.82354529036874,-20.07363344118305 L 38.60166973230661,-21.048708431496415 A 57.066609072501194 57.066609072501194 0 0 0 20.90208894244944,-13.724164012497553 Z M 60.20753535680931,-21.765815123066787 L 60.05080307439062,-20.7781739981394 A 56.066609072501194 56.066609072501194 0 0 1 77.87912012655205,-14.750870263555425 L 76.454969543886,-12.110454554260404 L 84.27744854535145,-11.867921522217129 L 79.7779875701068,-18.271424542615453 L 78.35383698744074,-15.631008833320431 A 57.066609072501194 57.066609072501194 0 0 0 60.20753535680931,-21.765815123066787"/><text text-anchor="middle" pointer-events="none" font-size="8px" fill="#000000" x="49.386921992613395" y="-18.939963025187573" transform="rotate(180 49.386921992613395 -21.939963025187573)" font-family="sans-serif">LOT</text></g><g class="relationship" transform="translate(158.6958309477695 59.35606422438225) rotate(187.21289007847548)"><path class="outline" fill="#A5ABB6" stroke="none" d="M 17.814376783534897,17.547021964260857 L 18.501731218904354,16.82069980421207 A 47.66431814614863 47.66431814614863 0 0 0 38.68924049797299,28.176720612032405 L 38.425421110711625,29.141292709340348 A 48.66431814614863 48.66431814614863 0 0 1 17.814376783534897,17.547021964260857 Z M 60.00630240126138,30.073674182741797 L 59.82665762190814,29.089942637425132 A 47.66431814614863 47.66431814614863 0 0 0 80.91836770627891,19.51735128518495 L 79.05191767694049,17.168657118635675 L 86.70972909978363,15.553750244486846 L 83.4069677453968,22.648943507250653 L 81.54051771605837,20.300249340701377 A 48.66431814614863 48.66431814614863 0 0 1 60.00630240126138,30.073674182741797"/><text text-anchor="middle" pointer-events="none" font-size="8px" fill="#000000" x="49.185057471111364" y="33.320478753321765" transform="rotate(180 49.185057471111364 30.320478753321765)" font-family="sans-serif">LOT</text></g><g class="relationship" transform="translate(158.6958309477695 59.35606422438225) rotate(187.21289007847548)"><path class="outline" fill="#A5ABB6" stroke="none" d="M 20.055679524053907,14.933844743683553 L 20.636756339455843,14.119996026413359 A 52.707756624017875 52.707756624017875 0 0 0 38.7917208651429,22.43469040135546 L 38.55508983321819,23.40628998695143 A 53.707756624017875 53.707756624017875 0 0 1 20.055679524053907,14.933844743683553 Z M 60.153478819222414,24.190831430437036 L 59.987963302051725,23.204624244509198 A 52.707756624017875 52.707756624017875 0 0 0 78.69833341542162,16.229028951033214 L 77.13683714995166,13.667441667155622 L 84.93561978871432,13.012468878916259 L 80.78032843604821,19.644478662870007 L 79.21883217057825,17.082891378992414 A 53.707756624017875 53.707756624017875 0 0 1 60.153478819222414,24.190831430437036"/><text text-anchor="middle" pointer-events="none" font-size="8px" fill="#000000" x="49.332563099547485" y="27.396545055892474" transform="rotate(180 49.332563099547485 24.396545055892474)" font-family="sans-serif">LOT</text></g><g class="relationship" transform="translate(158.6958309477695 59.35606422438225) rotate(187.21289007847548)"><path class="outline" fill="#A5ABB6" stroke="none" d="M 21.916810198440235,12.037584090071652 L 22.380594600123676,11.151635994100372 A 62.277681182368646 62.277681182368646 0 0 0 38.85718542732977,17.006182063261065 L 38.657967568818634,17.986137289202652 A 63.277681182368646 63.277681182368646 0 0 1 21.916810198440235,12.037584090071652 Z M 60.27264504752071,18.609976821024233 L 60.13027836824817,17.62016283413937 A 62.277681182368646 62.277681182368646 0 0 0 76.91710659446228,12.725660503291119 L 75.68136237268459,9.991993329265894 L 83.50162070415075,10.297868514814052 L 78.56476555683253,16.370550068658083 L 77.32902133505483,13.63688289463286 A 63.277681182368646 63.277681182368646 0 0 1 60.27264504752071,18.609976821024233"/><text text-anchor="middle" pointer-events="none" font-size="8px" fill="#000000" x="49.452886007954156" y="21.72839333496284" transform="rotate(180 49.452886007954156 18.72839333496284)" font-family="sans-serif">LOT</text></g><g class="relationship" transform="translate(158.6958309477695 59.35606422438225) rotate(187.21289007847548)"><path class="outline" fill="#A5ABB6" stroke="none" d="M 23.36248952867312,8.913141030110477 L 23.700190098026855,7.971887437576477 A 81.62207620864504 81.62207620864504 0 0 0 38.88905549784755,11.823336178889235 L 38.73744264036473,12.811776132273295 A 82.62207620864504 82.62207620864504 0 0 1 23.36248952867312,8.913141030110477 Z M 60.360325232041966,13.264633273848716 L 60.25022979576231,12.27071225338966 A 81.62207620864504 81.62207620864504 0 0 0 75.58703084499331,9.058575407435551 L 74.693044060929,6.194873671933343 L 82.41799935850918,7.4498898672025415 L 76.77901322374572,12.876844388105162 L 75.88502643968141,10.013142652602955 A 82.62207620864504 82.62207620864504 0 0 1 60.360325232041966,13.264633273848716"/><text text-anchor="middle" pointer-events="none" font-size="8px" fill="#000000" x="49.54447153579512" y="16.24888663167684" transform="rotate(180 49.54447153579512 13.24888663167684)" font-family="sans-serif">LOT</text></g><g class="relationship" transform="translate(158.6958309477695 59.35606422438225) rotate(187.21289007847548)"><path class="outline" fill="#A5ABB6" stroke="none" d="M 24.365313462086043,5.619741977554534 L 24.57052880428168,4.6410251322271785 A 130.07547396622851 130.07547396622851 0 0 0 38.89317327652019,6.819840510774995 L 38.79806819597124,7.815307749640155 A 131.07547396622851 131.07547396622851 0 0 1 24.365313462086043,5.619741977554534 Z M 60.41289991432781,8.0897618095522 L 60.34310128662142,7.09220070787957 A 130.07547396622851 130.07547396622851 0 0 0 74.71645017601477,5.277752352121056 L 74.17555408495191,2.326916636823963 L 81.69188286021847,4.507467425523885 L 75.4376449640986,9.212199972517181 L 74.89674887303573,6.261364257220088 A 131.07547396622851 131.07547396622851 0 0 1 60.41289991432781,8.0897618095522"/><text text-anchor="middle" pointer-events="none" font-size="8px" fill="#000000" x="49.60616486950896" y="10.898916743064618" transform="rotate(180 49.60616486950896 7.898916743064618)" font-family="sans-serif">LOT</text></g><g class="relationship" transform="translate(158.6958309477695 59.35606422438225) rotate(187.21289007847548)"><path class="outline" fill="#A5ABB6" stroke="none" d="M 24.906272637950263,2.219816047353928 L 24.97511272569896,1.2221883400809435 A 381.8835774264255 381.8835774264255 0 0 0 38.87629556457231,1.9271558577194696 L 38.84385710198004,2.926629592314157 A 382.8835774264255 382.8835774264255 0 0 1 24.906272637950263,2.219816047353928 Z M 60.427586347720236,3.0184560873290707 L 60.40365329030422,2.0187425239706727 A 381.8835774264255 381.8835774264255 0 0 0 74.31033127357276,1.4320816420430853 L 74.12928405711456,-1.562450359023648 L 81.3277471454715,1.508726803818391 L 74.5517275621837,5.42479097679873 L 74.3706803457255,2.430258975731997 A 382.8835774264255 382.8835774264255 0 0 1 60.427586347720236,3.0184560873290707"/><text text-anchor="middle" pointer-events="none" font-size="8px" fill="#000000" x="49.637201736981105" y="5.624667413345151" transform="rotate(180 49.637201736981105 2.6246674133451506)" font-family="sans-serif">LOT</text></g><g class="relationship" transform="translate(158.6958309477695 59.35606422438225) rotate(187.21289007847548)"><path class="outline" fill="#A5ABB6" stroke="none" d="M 24.906272637950263,-2.219816047353928 L 24.97511272569896,-1.2221883400809435 A 381.8835774264255 381.8835774264255 0 0 1 38.87629556457221,-1.9271558577194696 L 38.84385710197994,-2.926629592314157 A 382.8835774264255 382.8835774264255 0 0 0 24.906272637950263,-2.219816047353928 Z M 60.42758634772025,-3.0184560873290707 L 60.40365329030423,-2.0187425239706727 A 381.8835774264255 381.8835774264255 0 0 1 74.31033127357276,-1.4320816420430853 L 74.12928405711456,1.562450359023648 L 81.3277471454715,-1.508726803818391 L 74.5517275621837,-5.42479097679873 L 74.3706803457255,-2.430258975731997 A 382.8835774264255 382.8835774264255 0 0 0 60.42758634772025,-3.0184560873290707"/><text text-anchor="middle" pointer-events="none" font-size="8px" fill="#000000" x="49.63720173698106" y="0.37533258665484937" transform="rotate(180 49.63720173698106 -2.6246674133451506)" font-family="sans-serif">LOT</text></g><g class="relationship" transform="translate(158.6958309477695 59.35606422438225) rotate(187.21289007847548)"><path class="outline" fill="#A5ABB6" stroke="none" d="M 24.365313462086043,-5.619741977554534 L 24.57052880428168,-4.6410251322271785 A 130.07547396622851 130.07547396622851 0 0 1 38.8931732765202,-6.819840510774995 L 38.798068195971254,-7.815307749640155 A 131.07547396622851 131.07547396622851 0 0 0 24.365313462086043,-5.619741977554534 Z M 60.41289991432777,-8.0897618095522 L 60.343101286621376,-7.0922007078795986 A 130.07547396622851 130.07547396622851 0 0 1 74.71645017601477,-5.277752352121056 L 74.17555408495191,-2.326916636823963 L 81.69188286021847,-4.507467425523885 L 75.4376449640986,-9.212199972517181 L 74.89674887303573,-6.261364257220088 A 131.07547396622851 131.07547396622851 0 0 0 60.41289991432777,-8.0897618095522"/><text text-anchor="middle" pointer-events="none" font-size="8px" fill="#000000" x="49.606164869508945" y="-4.898916743064618" transform="rotate(180 49.606164869508945 -7.898916743064618)" font-family="sans-serif">LOT</text></g><g class="relationship" transform="translate(158.6958309477695 59.35606422438225) rotate(187.21289007847548)"><path class="outline" fill="#A5ABB6" stroke="none" d="M 23.36248952867312,-8.913141030110477 L 23.700190098026855,-7.971887437576477 A 81.62207620864504 81.62207620864504 0 0 1 38.88905549784754,-11.823336178889221 L 38.73744264036472,-12.811776132273295 A 82.62207620864504 82.62207620864504 0 0 0 23.36248952867312,-8.913141030110477 Z M 60.36032523204195,-13.264633273848716 L 60.2502297957623,-12.27071225338966 A 81.62207620864504 81.62207620864504 0 0 1 75.58703084499331,-9.058575407435551 L 74.693044060929,-6.194873671933343 L 82.41799935850918,-7.4498898672025415 L 76.77901322374572,-12.876844388105162 L 75.88502643968141,-10.013142652602955 A 82.62207620864504 82.62207620864504 0 0 0 60.36032523204195,-13.264633273848716"/><text text-anchor="middle" pointer-events="none" font-size="8px" fill="#000000" x="49.544471535795104" y="-10.24888663167684" transform="rotate(180 49.544471535795104 -13.24888663167684)" font-family="sans-serif">LOT</text></g><g class="relationship" transform="translate(158.6958309477695 59.35606422438225) rotate(187.21289007847548)"><path class="outline" fill="#A5ABB6" stroke="none" d="M 21.916810198440235,-12.037584090071652 L 22.380594600123676,-11.151635994100372 A 62.277681182368646 62.277681182368646 0 0 1 38.85718542732977,-17.006182063261065 L 38.657967568818634,-17.986137289202652 A 63.277681182368646 63.277681182368646 0 0 0 21.916810198440235,-12.037584090071652 Z M 60.272645047520726,-18.609976821024233 L 60.130278368248185,-17.62016283413937 A 62.277681182368646 62.277681182368646 0 0 1 76.91710659446228,-12.725660503291119 L 75.68136237268459,-9.991993329265894 L 83.50162070415075,-10.297868514814052 L 78.56476555683253,-16.370550068658083 L 77.32902133505483,-13.63688289463286 A 63.277681182368646 63.277681182368646 0 0 0 60.272645047520726,-18.609976821024233"/><text text-anchor="middle" pointer-events="none" font-size="8px" fill="#000000" x="49.45288600795416" y="-15.728393334962846" transform="rotate(180 49.45288600795416 -18.728393334962846)" font-family="sans-serif">LOT</text></g><g class="relationship" transform="translate(158.6958309477695 59.35606422438225) rotate(187.21289007847548)"><path class="outline" fill="#A5ABB6" stroke="none" d="M 20.055679524053907,-14.933844743683553 L 20.636756339455843,-14.119996026413359 A 52.707756624017875 52.707756624017875 0 0 1 38.79172086514289,-22.43469040135546 L 38.55508983321819,-23.40628998695143 A 53.707756624017875 53.707756624017875 0 0 0 20.055679524053907,-14.933844743683553 Z M 60.153478819222414,-24.190831430437036 L 59.987963302051725,-23.204624244509198 A 52.707756624017875 52.707756624017875 0 0 1 78.69833341542162,-16.229028951033214 L 77.13683714995166,-13.667441667155622 L 84.93561978871432,-13.012468878916259 L 80.78032843604821,-19.644478662870007 L 79.21883217057825,-17.082891378992414 A 53.707756624017875 53.707756624017875 0 0 0 60.153478819222414,-24.190831430437036"/><text text-anchor="middle" pointer-events="none" font-size="8px" fill="#000000" x="49.332563099547485" y="-21.396545055892474" transform="rotate(180 49.332563099547485 -24.396545055892474)" font-family="sans-serif">LOT</text></g><g class="relationship" transform="translate(158.6958309477695 59.35606422438225) rotate(463.3732612848921)"><path class="outline" fill="#A5ABB6" stroke="none" d="M 14.44320574945421,-20.411854586953456 L 15.247803529220876,-19.818034401379958 A 44.76218160607493 44.76218160607493 0 0 1 38.50181789716679,-36.14184672277578 L 38.216721480684654,-37.100345566441774 A 45.76218160607493 45.76218160607493 0 0 0 14.44320574945421,-20.411854586953456 Z M 59.77998824343381,-38.20004563645101 L 59.59388188928828,-37.217516031326234 A 44.76218160607493 44.76218160607493 0 0 1 84.38791799066837,-23.344095157862817 L 82.16788125417528,-21.326314969482247 L 89.46607788630521,-18.500306137442376 L 87.34796697265915,-26.034468742370244 L 85.12793023616607,-24.016688553989674 A 45.76218160607493 45.76218160607493 0 0 0 59.77998824343381,-38.20004563645101"/><text text-anchor="middle" pointer-events="none" font-size="8px" fill="#000000" x="48.95803587956797" y="-35.44078296137477" transform="rotate(180 48.95803587956797 -38.44078296137477)" font-family="sans-serif">LOT</text></g><g class="relationship" transform="translate(158.6958309477695 59.35606422438225) rotate(187.21289007847548)"><path class="outline" fill="#A5ABB6" stroke="none" d="M 17.814376783534897,-17.547021964260857 L 18.501731218904354,-16.82069980421207 A 47.66431814614863 47.66431814614863 0 0 1 27.73590246778068,-23.653616160113245 L 27.242281449945118,-24.523293278790625 A 48.66431814614863 48.66431814614863 0 0 0 17.814376783534897,-17.547021964260857 Z M 71.54606028642776,-26.437395952943255 L 71.12928575113075,-25.52838605930735 A 47.66431814614863 47.66431814614863 0 0 1 80.91836770627891,-19.51735128518495 L 79.05191767694049,-17.168657118635675 L 86.70972909978363,-15.553750244486846 L 83.4069677453968,-22.648943507250653 L 81.54051771605837,-20.300249340701377 A 48.66431814614863 48.66431814614863 0 0 0 71.54606028642776,-26.437395952943255"/><text text-anchor="middle" pointer-events="none" font-size="8px" fill="#000000" x="49.185057471111364" y="-27.320478753321765" transform="rotate(180 49.185057471111364 -30.320478753321765)" font-family="sans-serif">LOTBiznes</text></g><g class="relationship" transform="translate(158.6958309477695 59.35606422438225) rotate(187.21289007847548)"><path class="outline" fill="#A5ABB6" stroke="none" d="M 15.235387732235946,-19.82758080675589 L 16.015990413247987,-19.20255324384621 A 45.15488115743333 45.15488115743333 0 0 1 27.72324010427172,-29.512550426417 L 27.201906175406457,-30.365903187362854 A 46.15488115743333 46.15488115743333 0 0 0 15.235387732235946,-19.82758080675589 Z M 71.32875043270231,-32.54486987573877 L 70.89402417571681,-31.64430722856347 A 45.15488115743333 45.15488115743333 0 0 1 83.56005080425807,-22.537853106476394 L 81.4143665545662,-20.441179765055686 L 88.80990264252169,-17.880702080765502 L 86.42096313718055,-25.333417561704003 L 84.27527888748868,-23.236744220283295 A 46.15488115743333 46.15488115743333 0 0 0 71.32875043270231,-32.54486987573877"/><text text-anchor="middle" pointer-events="none" font-size="8px" fill="#000000" x="49.012334652750965" y="-33.5788294500249" transform="rotate(180 49.012334652750965 -36.5788294500249)" font-family="sans-serif">LOTBiznes</text></g><g class="relationship" transform="translate(158.6958309477695 59.35606422438225) rotate(187.21289007847548)"><path class="outline" fill="#A5ABB6" stroke="none" d="M 12.367599250055084,-21.732291383791928 L 13.226653204424968,-21.22040633470233 A 44.27819499299781 44.27819499299781 0 0 1 27.611974438214272,-35.98686076731667 L 27.077805480535517,-36.832238508123936 A 45.27819499299781 45.27819499299781 0 0 0 12.367599250055084,-21.732291383791928 Z M 71.1281207877164,-39.243290951960404 L 70.68940831065613,-38.34466346380324 A 44.27819499299781 44.27819499299781 0 0 1 86.60042316817025,-25.236450400469618 L 84.20625975647938,-23.428694455071913 L 91.21754760938003,-19.95136176409055 L 89.79264105042473,-27.646791660999895 L 87.39847763873387,-25.83903571560219 A 45.27819499299781 45.27819499299781 0 0 0 71.1281207877164,-39.243290951960404"/><text text-anchor="middle" pointer-events="none" font-size="8px" fill="#000000" x="48.8167824379695" y="-40.26633200270645" transform="rotate(180 48.8167824379695 -43.26633200270645)" font-family="sans-serif">LOTBiznes</text></g><g class="relationship" transform="translate(158.6958309477695 59.35606422438225) rotate(187.21289007847548)"><path class="outline" fill="#A5ABB6" stroke="none" d="M 9.265372650015623,-23.225048324090576 L 10.18659379640068,-22.83600899516225 A 44.59018127222861 44.59018127222861 0 0 1 27.411823417286666,-43.16303450880166 L 26.876903226166263,-44.00793710030656 A 45.59018127222861 45.59018127222861 0 0 0 9.265372650015623,-23.225048324090576 Z M 70.93946828645842,-46.61459164638228 L 70.50789604805358,-45.71251326672879 A 44.59018127222861 44.59018127222861 0 0 1 90.00960697519095,-27.558181204139288 L 87.40282713055718,-26.073358372414507 L 93.90865688998774,-21.723165371947985 L 93.48531343470263,-29.53794497977233 L 90.87853359006887,-28.05312214804755 A 45.59018127222861 45.59018127222861 0 0 0 70.93946828645842,-46.61459164638228"/><text text-anchor="middle" pointer-events="none" font-size="8px" fill="#000000" x="48.601220787318574" y="-47.50016212655112" transform="rotate(180 48.601220787318574 -50.50016212655112)" font-family="sans-serif">LOTBiznes</text></g><g class="relationship" transform="translate(158.6958309477695 59.35606422438225) rotate(463.3732612848921)"><path class="outline" fill="#A5ABB6" stroke="none" d="M 5.987513214418485,-24.277555179777966 L 6.953439040707552,-24.018736134675446 A 45.87300103208263 45.87300103208263 0 0 1 27.137041493697094,-51.16199314132646 L 26.611104375338286,-52.01251659634251 A 46.87300103208263 46.87300103208263 0 0 0 5.987513214418485,-24.277555179777966 Z M 70.75535665940778,-54.773856283163994 L 70.33950956698276,-53.86442173591958 A 45.87300103208263 45.87300103208263 0 0 1 93.74830719949978,-29.447984602109564 L 90.96987866136213,-28.31646577395764 L 96.85158922154388,-23.153571151147048 L 97.4528785836833,-30.956676372978798 L 94.67445004554565,-29.825157544826872 A 46.87300103208263 46.87300103208263 0 0 0 70.75535665940778,-54.773856283163994"/><text text-anchor="middle" pointer-events="none" font-size="8px" fill="#000000" x="48.368260136563165" y="-55.42847131210617" transform="rotate(180 48.368260136563165 -58.42847131210617)" font-family="sans-serif">LOTBiznes</text></g><g class="relationship" transform="translate(158.6958309477695 59.35606422438225) rotate(187.21289007847548)"><path class="outline" fill="#A5ABB6" stroke="none" d="M 5.987513214418485,-24.277555179777966 L 6.953439040707552,-24.018736134675446 A 45.87368042021109 45.87368042021109 0 0 1 27.1376497842686,-51.16258643975361 L 26.611719409808774,-52.01311406494902 A 46.87368042021109 46.87368042021109 0 0 0 5.987513214418485,-24.277555179777966 Z M 70.75601971425237,-54.77442437123971 L 70.34017850370543,-53.86498713447686 A 45.87368042021109 45.87368042021109 0 0 1 93.74961793551414,-29.448002918291294 L 90.97118774368184,-28.316488150771786 L 96.85289075836504,-23.153584931935843 L 97.45419152462387,-30.95668927498397 L 94.67576133279157,-29.82517450746446 A 46.87368042021109 46.87368042021109 0 0 0 70.75601971425237,-54.77442437123971"/><text text-anchor="middle" pointer-events="none" font-size="8px" fill="#000000" x="48.36890778159145" y="-55.42897565195729" transform="rotate(180 48.36890778159145 -58.42897565195729)" font-family="sans-serif">LOTBiznes</text></g></g><g class="layer nodes"><g class="node" transform="translate(134.1137036470371,162.75505571237946)"><circle class="outline" cx="0" cy="0" r="25" fill="#D9C8AE" stroke="#c0a378" stroke-width="2px"/><text text-anchor="middle" pointer-events="none" font-family="sans-serif" dy="1.5625" font-size="25" fill="#604A0E"/><text text-anchor="middle" pointer-events="none" y="5" font-size="10px" fill="#604A0E" font-family="sans-serif"> MSN</text></g><g class="node" transform="translate(158.6958309477695,59.35606422438225)"><circle class="outline" cx="0" cy="0" r="25" fill="#D9C8AE" stroke="#c0a378" stroke-width="2px"/><text text-anchor="middle" pointer-events="none" font-family="sans-serif" dy="1.5625" font-size="25" fill="#604A0E"/><text text-anchor="middle" pointer-events="none" y="5" font-size="10px" fill="#604A0E" font-family="sans-serif"> ORD</text></g><g class="node" transform="translate(53.25471667948727,46.01165299413814)"><circle class="outline" cx="0" cy="0" r="25" fill="#D9C8AE" stroke="#c0a378" stroke-width="2px"/><text text-anchor="middle" pointer-events="none" font-family="sans-serif" dy="1.5625" font-size="25" fill="#604A0E"/><text text-anchor="middle" pointer-events="none" y="5" font-size="10px" fill="#604A0E" font-family="sans-serif"> GRR</text></g></g></svg>