<svg xmlns="http://www.w3.org/2000/svg" width="251.5478515625" height="255.23611450195312" viewBox="-29.39249038696289 -20.91271209716797 251.5478515625 255.23611450195312"><title>Neo4j Graph Visualization</title><desc>Created using Neo4j (http://www.neo4j.com/)</desc><g class="layer relationships"><g class="relationship" transform="translate(149.41346805189508 205.32341027748365) rotate(234.2401257886562)"><path class="outline" fill="#A5ABB6" stroke="none" d="M 25 0.5 L 34.56757211189189 0.5 L 34.56757211189189 -0.5 L 25 -0.5 Z M 70.34100961189189 0.5 L 79.90858172378378 0.5 L 79.90858172378378 3.5 L 86.90858172378378 0 L 79.90858172378378 -3.5 L 79.90858172378378 -0.5 L 70.34100961189189 -0.5 Z"/><text text-anchor="middle" pointer-events="none" font-size="8px" fill="#000000" x="52.45429086189189" y="3" transform="rotate(180 52.45429086189189 0)" font-family="sans-serif">WROTE</text></g><g class="relationship" transform="translate(193.1553762513493 90.29472669707619) rotate(527.4889523091604)"><path class="outline" fill="#A5ABB6" stroke="none" d="M 25 0.5 L 28.952067783923482 0.5 L 28.952067783923482 -0.5 L 25 -0.5 Z M 75.84269278392348 0.5 L 79.79476056784696 0.5 L 79.79476056784696 3.5 L 86.79476056784696 0 L 79.79476056784696 -3.5 L 79.79476056784696 -0.5 L 75.84269278392348 -0.5 Z"/><text text-anchor="middle" pointer-events="none" font-size="8px" fill="#000000" x="52.39738028392348" y="3" transform="rotate(180 52.39738028392348 0)" font-family="sans-serif">DIRECTED</text></g><g class="relationship" transform="translate(118.20972980377184 8.087288525909985) rotate(467.8122197620944)"><path class="outline" fill="#A5ABB6" stroke="none" d="M 25 0.5 L 29.610621891573103 0.5 L 29.610621891573103 -0.5 L 25 -0.5 Z M 75.1731218915731 0.5 L 79.7837437831462 0.5 L 79.7837437831462 3.5 L 86.7837437831462 0 L 79.7837437831462 -3.5 L 79.7837437831462 -0.5 L 75.1731218915731 -0.5 Z"/><text text-anchor="middle" pointer-events="none" font-size="8px" fill="#000000" x="52.3918718915731" y="3" transform="rotate(180 52.3918718915731 0)" font-family="sans-serif">ACTED_IN</text></g><g class="relationship" transform="translate(-0.39248949262531374 41.07059996357191) rotate(401.02606592169036)"><path class="outline" fill="#A5ABB6" stroke="none" d="M 25 0.5 L 29.66156555500951 0.5 L 29.66156555500951 -0.5 L 25 -0.5 Z M 75.2240655550095 0.5 L 79.88563111001902 0.5 L 79.88563111001902 3.5 L 86.88563111001902 0 L 79.88563111001902 -3.5 L 79.88563111001902 -0.5 L 75.2240655550095 -0.5 Z"/><text text-anchor="middle" pointer-events="none" font-size="8px" fill="#000000" x="52.44281555500951" y="3" font-family="sans-serif">ACTED_IN</text></g><g class="relationship" transform="translate(3.1409035035944957 188.35037149975426) rotate(317.60411677334383)"><path class="outline" fill="#A5ABB6" stroke="none" d="M 25 0.5 L 33.36883112414777 0.5 L 33.36883112414777 -0.5 L 25 -0.5 Z M 69.14226862414776 0.5 L 77.51109974829554 0.5 L 77.51109974829554 3.5 L 84.51109974829554 0 L 77.51109974829554 -3.5 L 77.51109974829554 -0.5 L 69.14226862414776 -0.5 Z"/><text text-anchor="middle" pointer-events="none" font-size="8px" fill="#000000" x="51.25554987414777" y="3" font-family="sans-serif">WROTE</text></g></g><g class="layer nodes"><g class="node" transform="translate(149.41346805189508,205.32341027748365)"><circle class="outline" cx="0" cy="0" r="25" fill="#F79767" stroke="#f36924" stroke-width="2px"/><text text-anchor="middle" pointer-events="none" font-family="sans-serif" dy="1.5625" font-size="25" fill="#FFFFFF"/><text text-anchor="middle" pointer-events="none" y="5" font-size="10px" fill="#FFFFFF" font-family="sans-serif"> Christop…</text></g><g class="node" transform="translate(84.01526551642061,114.51258620591246)"><circle class="outline" cx="0" cy="0" r="25" fill="#57C7E3" stroke="#23b3d7" stroke-width="2px"/><text text-anchor="middle" pointer-events="none" font-family="sans-serif" dy="1.5625" font-size="25" fill="#FFFFFF"/><text text-anchor="middle" pointer-events="none" font-family="sans-serif" dy="1.5625" font-size="25" fill="#FFFFFF"/><text text-anchor="middle" pointer-events="none" y="0" font-size="10px" fill="#FFFFFF" font-family="sans-serif"> Capitan</text><text text-anchor="middle" pointer-events="none" y="10" font-size="10px" fill="#FFFFFF" font-family="sans-serif"> Americ…</text></g><g class="node" transform="translate(193.1553762513493,90.29472669707619)"><circle class="outline" cx="0" cy="0" r="25" fill="#F79767" stroke="#f36924" stroke-width="2px"/><text text-anchor="middle" pointer-events="none" font-family="sans-serif" dy="1.5625" font-size="25" fill="#FFFFFF"/><text text-anchor="middle" pointer-events="none" font-family="sans-serif" dy="1.5625" font-size="25" fill="#FFFFFF"/><text text-anchor="middle" pointer-events="none" y="0" font-size="10px" fill="#FFFFFF" font-family="sans-serif"> Joe</text><text text-anchor="middle" pointer-events="none" y="10" font-size="10px" fill="#FFFFFF" font-family="sans-serif"> Johnston</text></g><g class="node" transform="translate(118.20972980377184,8.087288525909985)"><circle class="outline" cx="0" cy="0" r="25" fill="#F79767" stroke="#f36924" stroke-width="2px"/><text text-anchor="middle" pointer-events="none" font-family="sans-serif" dy="1.5625" font-size="25" fill="#FFFFFF"/><text text-anchor="middle" pointer-events="none" font-family="sans-serif" dy="1.5625" font-size="25" fill="#FFFFFF"/><text text-anchor="middle" pointer-events="none" y="0" font-size="10px" fill="#FFFFFF" font-family="sans-serif"> Chris</text><text text-anchor="middle" pointer-events="none" y="10" font-size="10px" fill="#FFFFFF" font-family="sans-serif"> Evans</text></g><g class="node" transform="translate(-0.39248949262531374,41.07059996357191)"><circle class="outline" cx="0" cy="0" r="25" fill="#F79767" stroke="#f36924" stroke-width="2px"/><text text-anchor="middle" pointer-events="none" font-family="sans-serif" dy="1.5625" font-size="25" fill="#FFFFFF"/><text text-anchor="middle" pointer-events="none" font-family="sans-serif" dy="1.5625" font-size="25" fill="#FFFFFF"/><text text-anchor="middle" pointer-events="none" font-family="sans-serif" dy="1.5625" font-size="25" fill="#FFFFFF"/><text text-anchor="middle" pointer-events="none" y="-5" font-size="10px" fill="#FFFFFF" font-family="sans-serif"> Samuel</text><text text-anchor="middle" pointer-events="none" y="5" font-size="10px" fill="#FFFFFF" font-family="sans-serif"> L.</text><text text-anchor="middle" pointer-events="none" y="15" font-size="10px" fill="#FFFFFF" font-family="sans-serif"> Jackson</text></g><g class="node" transform="translate(3.1409035035944957,188.35037149975426)"><circle class="outline" cx="0" cy="0" r="25" fill="#F79767" stroke="#f36924" stroke-width="2px"/><text text-anchor="middle" pointer-events="none" font-family="sans-serif" dy="1.5625" font-size="25" fill="#FFFFFF"/><text text-anchor="middle" pointer-events="none" font-family="sans-serif" dy="1.5625" font-size="25" fill="#FFFFFF"/><text text-anchor="middle" pointer-events="none" y="0" font-size="10px" fill="#FFFFFF" font-family="sans-serif"> Stephen</text><text text-anchor="middle" pointer-events="none" y="10" font-size="10px" fill="#FFFFFF" font-family="sans-serif"> McFeely</text></g></g></svg>