<svg xmlns="http://www.w3.org/2000/svg" width="379.68255615234375" height="371.05499267578125" viewBox="-92.22885131835938 -82.49415588378906 379.68255615234375 371.05499267578125"><title>Neo4j Graph Visualization</title><desc>Created using Neo4j (http://www.neo4j.com/)</desc><g class="layer relationships"><g class="relationship" transform="translate(150.97895291499015 259.56085519051703) rotate(306.3269277430885)"><path class="outline" fill="#A5ABB6" stroke="none" d="M 24.018736134675446,6.953439040707552 L 24.277555179777966,5.987513214418485 A 100.09996319567884 100.09996319567884 0 0 0 25.48024120758202,6.301781314458935 L 25.23343701232967,7.270846683361285 A 101.09996319567884 101.09996319567884 0 0 1 24.018736134675446,6.953439040707552 Z M 71.92546666702073,8.033215963607404 L 71.71043063821367,7.056609847348199 A 100.09996319567884 100.09996319567884 0 0 0 72.92273534588709,6.781772775738576 L 72.24129443768541,3.8601913052624792 L 79.85333226169827,5.678674235014006 L 73.83132322348933,10.677214736373372 L 73.14988231528766,7.755633265897275 A 101.09996319567884 101.09996319567884 0 0 1 71.92546666702073,8.033215963607404"/><text text-anchor="middle" pointer-events="none" font-size="8px" fill="#000000" x="48.542993940895734" y="12.884929913533924" font-family="sans-serif">DIRECTED</text></g><g class="relationship" transform="translate(150.97895291499015 259.56085519051703) rotate(306.3269277430885)"><path class="outline" fill="#A5ABB6" stroke="none" d="M 24.018736134675446,-6.953439040707552 L 24.277555179777966,-5.987513214418485 A 100.09996319567884 100.09996319567884 0 0 1 30.875085794405518,-7.518112000118293 L 30.682176170285807,-8.499328529189214 A 101.09996319567884 101.09996319567884 0 0 0 24.018736134675446,-6.953439040707552 Z M 66.43952624828114,-9.083160618821466 L 66.27875275573356,-8.096169289531261 A 100.09996319567884 100.09996319567884 0 0 1 72.92273534588709,-6.781772775738576 L 72.24129443768541,-3.8601913052624792 L 79.85333226169827,-5.678674235014006 L 73.83132322348933,-10.677214736373372 L 73.14988231528766,-7.755633265897275 A 101.09996319567884 101.09996319567884 0 0 0 66.43952624828114,-9.083160618821466"/><text text-anchor="middle" pointer-events="none" font-size="8px" fill="#000000" x="48.542993940895734" y="-6.884929913533924" font-family="sans-serif">WROTE</text></g><g class="relationship" transform="translate(258.45371740463725 81.90349623210501) rotate(476.02113984065096)"><path class="outline" fill="#A5ABB6" stroke="none" d="M 24.018736134675446,6.953439040707552 L 24.277555179777966,5.987513214418485 A 100.25913380598026 100.25913380598026 0 0 0 25.519060055877887,6.311673005266968 L 25.272623971099986,7.280832051099665 A 101.25913380598026 101.25913380598026 0 0 1 24.018736134675446,6.953439040707552 Z M 71.96563696017898,8.042671730252366 L 71.75094908276157,7.065989020622467 A 100.25913380598026 100.25913380598026 0 0 0 73.00236825246823,6.782503590532276 L 72.32085907918045,3.8609380433085585 L 79.9329393915382,5.679243110731428 L 73.91104715018525,10.6779243201639 L 73.22953797689748,7.756358772940182 A 101.25913380598026 101.25913380598026 0 0 1 71.96563696017898,8.042671730252366"/><text text-anchor="middle" pointer-events="none" font-size="8px" fill="#000000" x="48.58276880214785" y="12.890351518891308" transform="rotate(180 48.58276880214785 9.890351518891308)" font-family="sans-serif">DIRECTED</text></g><g class="relationship" transform="translate(258.45371740463725 81.90349623210501) rotate(476.02113984065096)"><path class="outline" fill="#A5ABB6" stroke="none" d="M 24.018736134675446,-6.953439040707552 L 24.277555179777966,-5.987513214418485 A 100.25913380598026 100.25913380598026 0 0 1 30.914358007099025,-7.5261999472392205 L 30.721735452783715,-8.507472871337825 A 101.25913380598026 101.25913380598026 0 0 0 24.018736134675446,-6.953439040707552 Z M 66.47940901033243,-9.090892376879296 L 66.31890121271266,-8.103857804585473 A 100.25913380598026 100.25913380598026 0 0 1 73.00236825246823,-6.782503590532276 L 72.32085907918045,-3.8609380433085585 L 79.9329393915382,-5.679243110731428 L 73.91104715018525,-10.6779243201639 L 73.22953797689748,-7.756358772940182 A 101.25913380598026 101.25913380598026 0 0 0 66.47940901033243,-9.090892376879296"/><text text-anchor="middle" pointer-events="none" font-size="8px" fill="#000000" x="48.58276880214783" y="-6.890351518891308" transform="rotate(180 48.58276880214783 -9.890351518891308)" font-family="sans-serif">WROTE</text></g><g class="relationship" transform="translate(144.19067695858098 -53.494151803506746) rotate(535.0937156612841)"><path class="outline" fill="#A5ABB6" stroke="none" d="M 21.40063509461097,12.933012701892217 L 21.90063509461097,12.06698729810778 A 56.68156754956247 56.68156754956247 0 0 0 23.842075174317923,13.137806186501358 L 23.376326874890765,14.022723426462655 A 57.68156754956247 57.68156754956247 0 0 1 21.40063509461097,12.933012701892217 Z M 73.8184639694666,15.622316810433368 L 73.40971909477477,14.70966812259497 A 56.68156754956247 56.68156754956247 0 0 0 75.41510462536904,13.764008803116708 L 74.08273044214104,11.07611389522549 L 81.90892177431988,11.103118193566598 L 77.1916035363397,17.347868680304998 L 75.8592293531117,14.65997377241378 A 57.68156754956247 57.68156754956247 0 0 1 73.8184639694666,15.622316810433368"/><text text-anchor="middle" pointer-events="none" font-size="8px" fill="#000000" x="48.42901942351406" y="23.132147735807848" transform="rotate(180 48.42901942351406 20.132147735807848)" font-family="sans-serif">PRODUCED</text></g><g class="relationship" transform="translate(144.19067695858098 -53.494151803506746) rotate(535.0937156612841)"><path class="outline" fill="#A5ABB6" stroke="none" d="M 25 0.5 L 25.208710503373354 0.5 L 25.208710503373354 -0.5 L 25 -0.5 Z M 72.09933550337335 0.5 L 72.30804600674671 0.5 L 72.30804600674671 3.5 L 79.30804600674671 0 L 72.30804600674671 -3.5 L 72.30804600674671 -0.5 L 72.09933550337335 -0.5 Z"/><text text-anchor="middle" pointer-events="none" font-size="8px" fill="#000000" x="48.654023003373354" y="3" transform="rotate(180 48.654023003373354 0)" font-family="sans-serif">DIRECTED</text></g><g class="relationship" transform="translate(144.19067695858098 -53.494151803506746) rotate(535.0937156612841)"><path class="outline" fill="#A5ABB6" stroke="none" d="M 21.40063509461097,-12.933012701892217 L 21.90063509461097,-12.06698729810778 A 56.68156754956247 56.68156754956247 0 0 1 31.098227407501884,-16.330395341068105 L 30.760495190672284,-17.271637578600696 A 57.68156754956247 57.68156754956247 0 0 0 21.40063509461097,-12.933012701892217 Z M 66.24328344944139,-18.396848297511028 L 65.96586615203006,-17.436098775993074 A 56.68156754956247 56.68156754956247 0 0 1 75.41510462536904,-13.764008803116708 L 74.08273044214104,-11.07611389522549 L 81.90892177431988,-11.103118193566598 L 77.1916035363397,-17.347868680304998 L 75.8592293531117,-14.65997377241378 A 57.68156754956247 57.68156754956247 0 0 0 66.24328344944139,-18.396848297511028"/><text text-anchor="middle" pointer-events="none" font-size="8px" fill="#000000" x="48.429019423514056" y="-17.132147735807848" transform="rotate(180 48.429019423514056 -20.132147735807848)" font-family="sans-serif">WROTE</text></g><g class="relationship" transform="translate(-63.228853553219075 97.85968706444244) rotate(432.87121161585634)"><path class="outline" fill="#A5ABB6" stroke="none" d="M 21.40063509461097,12.933012701892217 L 21.90063509461097,12.06698729810778 A 57.57753979578723 57.57753979578723 0 0 0 31.518733844932708,16.495717671028792 L 31.18577986295353,17.438660747722295 A 58.57753979578723 58.57753979578723 0 0 1 21.40063509461097,12.933012701892217 Z M 66.68193227460452,18.555546708705805 L 66.40891761168332,17.593536836703436 A 57.57753979578723 57.57753979578723 0 0 0 76.28641472125251,13.7782351268218 L 74.95271707702176,11.090996656984531 L 82.7789207582446,11.114147035256256 L 78.06467824689352,17.36121975327149 L 76.73098060266277,14.673981283434221 A 58.57753979578723 58.57753979578723 0 0 1 66.68193227460452,18.555546708705805"/><text text-anchor="middle" pointer-events="none" font-size="8px" fill="#000000" x="48.862899917213426" y="23.25218657328709" font-family="sans-serif">WROTE</text></g><g class="relationship" transform="translate(-63.228853553219075 97.85968706444244) rotate(432.87121161585634)"><path class="outline" fill="#A5ABB6" stroke="none" d="M 25 0.5 L 25.640974836777573 0.5 L 25.640974836777573 -0.5 L 25 -0.5 Z M 72.53159983677757 0.5 L 73.17257467355515 0.5 L 73.17257467355515 3.5 L 80.17257467355515 0 L 73.17257467355515 -3.5 L 73.17257467355515 -0.5 L 72.53159983677757 -0.5 Z"/><text text-anchor="middle" pointer-events="none" font-size="8px" fill="#000000" x="49.08628733677757" y="3" font-family="sans-serif">DIRECTED</text></g><g class="relationship" transform="translate(-63.228853553219075 97.85968706444244) rotate(432.87121161585634)"><path class="outline" fill="#A5ABB6" stroke="none" d="M 21.40063509461097,-12.933012701892217 L 21.90063509461097,-12.06698729810778 A 57.57753979578723 57.57753979578723 0 0 1 24.241907371765603,-13.34731866519553 L 23.78257031577916,-14.235580714929561 A 58.57753979578723 58.57753979578723 0 0 0 21.40063509461097,-12.933012701892217 Z M 74.27186766864699,-15.82422578100244 L 73.86928226204994,-14.908843352508704 A 57.57753979578723 57.57753979578723 0 0 1 76.28641472125251,-13.7782351268218 L 74.95271707702176,-11.090996656984531 L 82.7789207582446,-11.114147035256256 L 78.06467824689352,-17.36121975327149 L 76.73098060266277,-14.673981283434221 A 58.57753979578723 58.57753979578723 0 0 0 74.27186766864699,-15.82422578100244"/><text text-anchor="middle" pointer-events="none" font-size="8px" fill="#000000" x="48.86289991721342" y="-17.25218657328709" font-family="sans-serif">PRODUCED</text></g></g><g class="layer nodes"><g class="node" transform="translate(150.97895291499015,259.56085519051703)"><circle class="outline" cx="0" cy="0" r="25" fill="#F79767" stroke="#f36924" stroke-width="2px"/><text text-anchor="middle" pointer-events="none" font-family="sans-serif" dy="1.5625" font-size="25" fill="#FFFFFF"/><text text-anchor="middle" pointer-events="none" font-family="sans-serif" dy="1.5625" font-size="25" fill="#FFFFFF"/><text text-anchor="middle" pointer-events="none" y="0" font-size="10px" fill="#FFFFFF" font-family="sans-serif"> Lilly</text><text text-anchor="middle" pointer-events="none" y="10" font-size="10px" fill="#FFFFFF" font-family="sans-serif"> Wacho…</text></g><g class="node" transform="translate(212.70609488944837,175.61225460209747)"><circle class="outline" cx="0" cy="0" r="25" fill="#57C7E3" stroke="#23b3d7" stroke-width="2px"/><text text-anchor="middle" pointer-events="none" font-family="sans-serif" dy="1.5625" font-size="25" fill="#FFFFFF"/><text text-anchor="middle" pointer-events="none" font-family="sans-serif" dy="1.5625" font-size="25" fill="#FFFFFF"/><text text-anchor="middle" pointer-events="none" y="0" font-size="10px" fill="#FFFFFF" font-family="sans-serif"> Speed</text><text text-anchor="middle" pointer-events="none" y="10" font-size="10px" fill="#FFFFFF" font-family="sans-serif"> Racer</text></g><g class="node" transform="translate(258.45371740463725,81.90349623210501)"><circle class="outline" cx="0" cy="0" r="25" fill="#F79767" stroke="#f36924" stroke-width="2px"/><text text-anchor="middle" pointer-events="none" font-family="sans-serif" dy="1.5625" font-size="25" fill="#FFFFFF"/><text text-anchor="middle" pointer-events="none" font-family="sans-serif" dy="1.5625" font-size="25" fill="#FFFFFF"/><text text-anchor="middle" pointer-events="none" y="0" font-size="10px" fill="#FFFFFF" font-family="sans-serif"> Lana</text><text text-anchor="middle" pointer-events="none" y="10" font-size="10px" fill="#FFFFFF" font-family="sans-serif"> Wacho…</text></g><g class="node" transform="translate(144.19067695858098,-53.494151803506746)"><circle class="outline" cx="0" cy="0" r="25" fill="#F79767" stroke="#f36924" stroke-width="2px"/><text text-anchor="middle" pointer-events="none" font-family="sans-serif" dy="1.5625" font-size="25" fill="#FFFFFF"/><text text-anchor="middle" pointer-events="none" font-family="sans-serif" dy="1.5625" font-size="25" fill="#FFFFFF"/><text text-anchor="middle" pointer-events="none" y="0" font-size="10px" fill="#FFFFFF" font-family="sans-serif"> Cameron</text><text text-anchor="middle" pointer-events="none" y="10" font-size="10px" fill="#FFFFFF" font-family="sans-serif"> Crowe</text></g><g class="node" transform="translate(40.26482382428742,-44.573080564309535)"><circle class="outline" cx="0" cy="0" r="25" fill="#57C7E3" stroke="#23b3d7" stroke-width="2px"/><text text-anchor="middle" pointer-events="none" font-family="sans-serif" dy="1.5625" font-size="25" fill="#FFFFFF"/><text text-anchor="middle" pointer-events="none" font-family="sans-serif" dy="1.5625" font-size="25" fill="#FFFFFF"/><text text-anchor="middle" pointer-events="none" y="0" font-size="10px" fill="#FFFFFF" font-family="sans-serif"> Jerry</text><text text-anchor="middle" pointer-events="none" y="10" font-size="10px" fill="#FFFFFF" font-family="sans-serif"> Maguire</text></g><g class="node" transform="translate(-63.228853553219075,97.85968706444244)"><circle class="outline" cx="0" cy="0" r="25" fill="#F79767" stroke="#f36924" stroke-width="2px"/><text text-anchor="middle" pointer-events="none" font-family="sans-serif" dy="1.5625" font-size="25" fill="#FFFFFF"/><text text-anchor="middle" pointer-events="none" font-family="sans-serif" dy="1.5625" font-size="25" fill="#FFFFFF"/><text text-anchor="middle" pointer-events="none" y="0" font-size="10px" fill="#FFFFFF" font-family="sans-serif"> Nancy</text><text text-anchor="middle" pointer-events="none" y="10" font-size="10px" fill="#FFFFFF" font-family="sans-serif"> Meyers</text></g><g class="node" transform="translate(-32.2533712984064,198.36734827763712)"><circle class="outline" cx="0" cy="0" r="25" fill="#57C7E3" stroke="#23b3d7" stroke-width="2px"/><text text-anchor="middle" pointer-events="none" font-family="sans-serif" dy="1.5625" font-size="25" fill="#FFFFFF"/><text text-anchor="middle" pointer-events="none" y="5" font-size="10px" fill="#FFFFFF" font-family="sans-serif"> Somethi…</text></g></g></svg>